<svg width="95" height="96" viewBox="0 0 95 96" fill="none" xmlns="http://www.w3.org/2000/svg">
<path d="M63.2064 77.8308H82.5704C82.9169 78.8286 83.5986 79.6696 84.4952 80.2051C85.3917 80.7406 86.4453 80.9361 87.4698 80.7572C88.4942 80.5782 89.4236 80.0362 90.0935 79.2271C90.7635 78.4179 91.1309 77.3936 91.1309 76.3353C91.1309 75.277 90.7635 74.2527 90.0935 73.4435C89.4236 72.6344 88.4942 72.0924 87.4698 71.9134C86.4453 71.7345 85.3917 71.93 84.4952 72.4655C83.5986 73.001 82.9169 73.842 82.5704 74.8398H64.6752V68.8578H74.9564C78.617 68.8621 82.1703 67.5995 85.0334 65.2772C87.8965 62.9548 89.8994 59.7106 90.7136 56.0768C91.5278 52.443 91.1049 48.6353 89.5142 45.2784C87.9235 41.9215 85.2596 39.2147 81.9594 37.6021C82.1747 36.5693 82.2889 35.5173 82.3002 34.4615C82.2998 30.9612 81.2015 27.5525 79.1653 24.7322C77.1291 21.912 74.2616 19.8276 70.9805 18.7828C69.9703 16.3418 68.2764 14.2578 66.1103 12.7908C63.9441 11.3238 61.4017 10.5388 58.8002 10.5337C56.7253 10.5308 54.6794 11.0301 52.8312 11.9903C50.8073 8.77875 47.8993 6.24527 44.4701 4.70608C41.0409 3.16689 37.2425 2.69015 33.5488 3.33539C29.8552 3.98063 26.43 5.71925 23.7008 8.33425C20.9716 10.9492 19.0592 14.3248 18.2025 18.0396C14.7397 18.2471 11.4345 19.5838 8.7757 21.852C6.11688 24.1203 4.24561 27.1996 3.43867 30.6346C2.63172 34.0696 2.93195 37.6778 4.29495 40.9256C5.65795 44.1733 8.01134 46.8882 11.007 48.6687L6.14695 53.6158C5.8716 53.8962 5.71692 54.2766 5.71692 54.6731C5.71692 55.0697 5.8716 55.45 6.14695 55.7304L10.2271 59.8849H4.45642C4.06688 59.8849 3.6933 60.0425 3.41786 60.3229C3.14241 60.6034 2.98767 60.9838 2.98767 61.3804V73.3443C2.98767 73.7409 3.14241 74.1213 3.41786 74.4018C3.6933 74.6823 4.06688 74.8398 4.45642 74.8398H10.2271L6.14695 78.9943C5.8716 79.2747 5.71692 79.655 5.71692 80.0516C5.71692 80.4481 5.8716 80.8285 6.14695 81.1089L14.4557 89.5689C14.7311 89.8493 15.1046 90.0068 15.4941 90.0068C15.8835 90.0068 16.2571 89.8493 16.5325 89.5689L20.6127 85.4144V91.2902C20.6127 91.6868 20.7674 92.0672 21.0429 92.3477C21.3183 92.6281 21.6919 92.7857 22.0814 92.7857H33.8314C34.221 92.7857 34.5945 92.6281 34.87 92.3477C35.1454 92.0672 35.3002 91.6868 35.3002 91.2902V85.4144L39.3804 89.5689C39.6558 89.8493 40.0293 90.0068 40.4188 90.0068C40.8082 90.0068 41.1817 89.8493 41.4572 89.5689L49.7659 81.1089C50.0412 80.8285 50.1959 80.4481 50.1959 80.0516C50.1959 79.655 50.0412 79.2747 49.7659 78.9943L45.6857 74.8398H51.4564C51.846 74.8398 52.2195 74.6823 52.495 74.4018C52.7704 74.1213 52.9252 73.7409 52.9252 73.3443V68.8578H55.8627V88.2992C55.8627 88.6959 56.0174 89.0762 56.2929 89.3567C56.5683 89.6372 56.9419 89.7947 57.3314 89.7947H82.5704C82.9169 90.7925 83.5986 91.6335 84.4952 92.169C85.3917 92.7045 86.4453 92.9001 87.4698 92.7211C88.4942 92.5421 89.4236 92.0002 90.0935 91.191C90.7635 90.3818 91.1309 89.3576 91.1309 88.2992C91.1309 87.2409 90.7635 86.2166 90.0935 85.4075C89.4236 84.5983 88.4942 84.0563 87.4698 83.8774C86.4453 83.6984 85.3917 83.894 84.4952 84.4295C83.5986 84.965 82.9169 85.8059 82.5704 86.8037H58.8002V68.8578H61.7377V76.3353C61.7377 76.7319 61.8924 77.1123 62.1679 77.3928C62.4433 77.6732 62.8169 77.8308 63.2064 77.8308ZM86.7064 74.8398C86.9969 74.8398 87.2809 74.9275 87.5224 75.0918C87.7639 75.2562 87.9522 75.4897 88.0634 75.763C88.1745 76.0363 88.2036 76.337 88.1469 76.6271C88.0903 76.9172 87.9504 77.1836 87.745 77.3928C87.5396 77.6019 87.2779 77.7444 86.993 77.8021C86.7081 77.8598 86.4127 77.8301 86.1444 77.7169C85.876 77.6038 85.6466 77.4121 85.4852 77.1661C85.3238 76.9202 85.2377 76.6311 85.2377 76.3353C85.2377 75.9387 85.3924 75.5583 85.6679 75.2778C85.9433 74.9974 86.3169 74.8398 86.7064 74.8398ZM86.7064 86.8037C86.9969 86.8037 87.2809 86.8914 87.5224 87.0558C87.7639 87.2201 87.9522 87.4537 88.0634 87.7269C88.1745 88.0002 88.2036 88.3009 88.1469 88.591C88.0903 88.8811 87.9504 89.1476 87.745 89.3567C87.5396 89.5658 87.2779 89.7083 86.993 89.766C86.7081 89.8237 86.4127 89.7941 86.1444 89.6809C85.876 89.5677 85.6466 89.376 85.4852 89.1301C85.3238 88.8841 85.2377 88.595 85.2377 88.2992C85.2377 87.9026 85.3924 87.5222 85.6679 87.2418C85.9433 86.9613 86.3169 86.8037 86.7064 86.8037ZM5.92517 34.4615C5.92906 30.8915 7.32421 27.469 9.80427 24.9455C12.2843 22.422 15.6466 21.0037 19.1527 21.0021C19.1924 21.0021 19.3642 21.0156 19.4039 21.0156C19.7516 21.0158 20.0881 20.8905 20.3536 20.6618C20.619 20.4332 20.7962 20.116 20.8535 19.7668C21.4083 16.3808 22.9905 13.2566 25.3781 10.8328C27.7657 8.40909 30.8388 6.8075 34.166 6.25288C37.4932 5.69826 40.9075 6.21846 43.9295 7.74045C46.9515 9.26244 49.4296 11.7098 51.0158 14.739C51.1126 14.9229 51.2461 15.0841 51.4077 15.2123C51.5694 15.3405 51.7555 15.4328 51.9543 15.4834C52.1531 15.534 52.3601 15.5416 52.5619 15.5059C52.7638 15.4701 52.956 15.3918 53.1264 15.2759C54.8049 14.1314 56.7801 13.5218 58.8002 13.5247C60.9268 13.5283 63.0002 14.202 64.7358 15.4532C66.4714 16.7045 67.7841 18.4719 68.4939 20.5131C68.5739 20.7438 68.7082 20.9511 68.8852 21.1167C69.0621 21.2822 69.2763 21.4011 69.5088 21.4627C72.3316 22.2153 74.8298 23.8993 76.6127 26.2512C78.3956 28.6032 79.3627 31.4905 79.3627 34.4615C79.3627 34.8803 79.3157 35.2915 79.2775 35.7028C78.1628 33.532 76.4874 31.712 74.4318 30.4391C72.3763 29.1663 70.0185 28.4887 67.6127 28.4796C65.9498 28.4763 64.3017 28.7966 62.757 29.4232C60.6566 26.3097 57.7098 23.8877 54.2776 22.4539C50.8455 21.0202 47.0772 20.637 43.4344 21.3513C39.7916 22.0657 36.4325 23.8465 33.7689 26.4756C31.1052 29.1047 29.2527 32.4678 28.4382 36.1529C25.878 36.5471 23.4492 37.5651 21.3584 39.1203C19.2677 40.6755 17.5768 42.722 16.4297 45.0855C16.1526 44.8418 15.7954 44.7135 15.4294 44.7263C15.0635 44.739 14.7158 44.8919 14.4557 45.1543L13.1925 46.4404C11.0116 45.3234 9.17774 43.6124 7.89475 41.4977C6.61176 39.3829 5.92996 36.9473 5.92517 34.4615ZM20.6127 43.9998V49.3103L18.6871 47.3497C19.1663 46.144 19.8149 45.0156 20.6127 43.9998ZM49.9877 71.8488H42.995C42.684 71.8719 42.3859 71.9848 42.1357 72.1742C41.8855 72.3635 41.6934 72.6216 41.582 72.9181C41.5247 73.0676 41.4675 73.2172 41.4043 73.3667C41.2847 73.6428 41.2499 73.9491 41.3044 74.2457C41.3589 74.5422 41.5002 74.815 41.7098 75.0282L46.6507 80.0576L40.4188 86.4029L35.4794 81.3721C35.2699 81.1587 35.002 81.0148 34.7108 80.9593C34.4195 80.9038 34.1186 80.9393 33.8476 81.0611C33.7007 81.1254 33.5538 81.1837 33.2939 81.2884C33.0192 81.3983 32.7835 81.59 32.6174 81.8383C32.4513 82.0867 32.3626 82.3802 32.3627 82.6807V89.7947H23.5502V82.6747C23.5275 82.3581 23.4166 82.0546 23.2307 81.7998C23.0447 81.545 22.7912 81.3494 22.5 81.236C22.3531 81.1777 22.2063 81.1194 22.0594 81.0551C21.7883 80.9333 21.4874 80.8978 21.1962 80.9533C20.905 81.0089 20.637 81.1527 20.4276 81.3661L15.4882 86.397L9.26217 80.0516L14.203 75.0223C14.4126 74.809 14.5539 74.5362 14.6085 74.2397C14.663 73.9432 14.6281 73.6368 14.5085 73.3608C14.4454 73.2112 14.3881 73.0617 14.2853 72.797C14.1773 72.5173 13.9891 72.2773 13.7452 72.1082C13.5013 71.9391 13.213 71.8487 12.9179 71.8488H5.92517V62.8759H12.9179C13.2288 62.8528 13.5269 62.7399 13.7771 62.5505C14.0274 62.3612 14.2194 62.1031 14.3308 61.8066C14.3881 61.6571 14.4454 61.5075 14.5085 61.358C14.6281 61.082 14.663 60.7756 14.6085 60.479C14.5539 60.1825 14.4126 59.9097 14.203 59.6965L9.26217 54.6731L15.4941 48.3277L20.4335 53.3586C20.6429 53.572 20.9108 53.7159 21.2021 53.7714C21.4933 53.8269 21.7942 53.7914 22.0653 53.6696C22.2121 53.6053 22.359 53.547 22.619 53.4423C22.8936 53.3324 23.1293 53.1407 23.2954 52.8924C23.4615 52.644 23.5503 52.3505 23.5502 52.05V44.93H32.3627V52.05C32.3854 52.3666 32.4962 52.6701 32.6822 52.9249C32.8682 53.1797 33.1216 53.3753 33.4128 53.4887C33.5597 53.547 33.7066 53.6053 33.8535 53.6696C34.1245 53.7914 34.4254 53.8269 34.7166 53.7714C35.0079 53.7159 35.2758 53.572 35.4852 53.3586L40.4246 48.3277L46.6565 54.6731L41.7157 59.7024C41.5061 59.9157 41.3648 60.1885 41.3103 60.485C41.2557 60.7816 41.2906 61.0879 41.4102 61.3639C41.4733 61.5135 41.5306 61.663 41.6334 61.9277C41.7414 62.2074 41.9296 62.4474 42.1735 62.6165C42.4175 62.7856 42.7057 62.876 43.0008 62.8759H49.9877V71.8488ZM51.4564 59.8849H45.6857L49.7659 55.7304C50.0412 55.45 50.1959 55.0697 50.1959 54.6731C50.1959 54.2766 50.0412 53.8962 49.7659 53.6158L41.4572 45.1558C41.1817 44.8754 40.8082 44.7179 40.4188 44.7179C40.0293 44.7179 39.6558 44.8754 39.3804 45.1558L35.3002 49.3103V43.4345C35.3002 43.0379 35.1454 42.6575 34.87 42.377C34.5945 42.0966 34.221 41.939 33.8314 41.939H22.5955C24.6495 40.2451 27.1579 39.2219 29.7924 39.0034C30.119 38.9764 30.4275 38.839 30.6686 38.613C30.9097 38.387 31.0697 38.0854 31.123 37.7561C31.6614 34.4268 33.1937 31.347 35.5115 28.9356C37.8293 26.5241 40.8202 24.8979 44.0776 24.278C47.335 23.6581 50.7009 24.0746 53.7176 25.4709C56.7344 26.8673 59.2557 29.1756 60.9387 32.0822C61.1297 32.4113 61.4372 32.6533 61.798 32.7587C62.1588 32.8641 62.5456 32.8249 62.8789 32.649C64.3399 31.8719 65.9643 31.4675 67.6127 31.4706C69.7393 31.4742 71.8127 32.1479 73.5483 33.3991C75.2839 34.6503 76.5966 36.4178 77.3064 38.459C77.3864 38.6897 77.5207 38.897 77.6977 39.0626C77.8746 39.2281 78.0888 39.347 78.3213 39.4086C81.4283 40.238 84.1319 42.1917 85.9264 44.9041C87.7209 47.6165 88.4832 50.9017 88.0707 54.1451C87.6582 57.3884 86.0992 60.3675 83.6854 62.5251C81.2716 64.6826 78.1684 65.8706 74.9564 65.8669H52.9252V61.3804C52.9252 60.9838 52.7704 60.6034 52.495 60.3229C52.2195 60.0425 51.846 59.8849 51.4564 59.8849Z" fill="#08238C"/>
<path d="M27.9564 55.3984C25.6325 55.3984 23.3608 56.1001 21.4285 57.4147C19.4962 58.7293 17.9902 60.5978 17.1008 62.784C16.2115 64.9701 15.9788 67.3756 16.4322 69.6964C16.8856 72.0172 18.0047 74.1489 19.6479 75.8221C21.2912 77.4953 23.3848 78.6348 25.6641 79.0964C27.9434 79.558 30.3059 79.3211 32.453 78.4156C34.6 77.5101 36.4351 75.9766 37.7262 74.0092C39.0173 72.0417 39.7064 69.7286 39.7064 67.3624C39.7029 64.1904 38.4639 61.1494 36.2611 58.9065C34.0583 56.6636 31.0716 55.402 27.9564 55.3984ZM27.9564 76.3353C26.2135 76.3353 24.5097 75.809 23.0605 74.8231C21.6113 73.8371 20.4817 72.4357 19.8147 70.7962C19.1477 69.1566 18.9732 67.3524 19.3133 65.6118C19.6533 63.8712 20.4926 62.2724 21.725 61.0175C22.9575 59.7626 24.5277 58.908 26.2372 58.5618C27.9467 58.2156 29.7186 58.3933 31.3288 59.0724C32.9391 59.7516 34.3154 60.9017 35.2838 62.3773C36.2521 63.8528 36.7689 65.5877 36.7689 67.3624C36.7666 69.7414 35.8374 72.0223 34.1852 73.7046C32.5331 75.3868 30.2929 76.3329 27.9564 76.3353Z" fill="#08238C"/>
</svg>
