<svg width="95" height="96" viewBox="0 0 95 96" fill="none" xmlns="http://www.w3.org/2000/svg">
<path d="M35.5155 25.4886C33.5338 25.4917 31.5951 26.0773 29.9323 27.175C28.2695 28.2728 26.9534 29.836 26.1419 31.6769C24.7412 31.9621 23.4143 32.5418 22.2462 33.379C21.078 34.2162 20.0944 35.2925 19.3583 36.539C18.6221 37.7855 18.1496 39.1747 17.9709 40.6178C17.7923 42.0609 17.9115 43.526 18.3208 44.9195C17.2952 46.3831 16.6597 48.0924 16.4764 49.8807C16.293 51.669 16.5681 53.4751 17.2747 55.1228C17.9813 56.7706 19.0953 58.2037 20.5081 59.2823C21.9209 60.3609 23.5841 61.0482 25.3356 61.2772C25.6987 63.8943 27.0207 66.2747 29.0361 67.9405C31.0516 69.6062 33.6112 70.4341 36.2013 70.2579C38.7914 70.0816 41.2201 68.9143 42.9999 66.9903C44.7797 65.0663 45.7789 62.5279 45.7968 59.8849V35.957C45.7936 33.1816 44.7094 30.5207 42.782 28.5582C40.8546 26.5957 38.2413 25.4918 35.5155 25.4886ZM42.8593 59.8849C42.861 61.7495 42.1777 63.5473 40.9438 64.9251C39.7099 66.3029 38.0146 67.161 36.1909 67.3308C34.3673 67.5006 32.5472 66.9698 31.0883 65.8427C29.6295 64.7156 28.6373 63.0738 28.3069 61.2398C30.7236 60.8512 32.925 59.5977 34.5155 57.7047C36.106 55.8117 36.9814 53.4032 36.9843 50.9119H34.0468C34.0499 52.0161 33.8129 53.1072 33.3528 54.107C32.8926 55.1068 32.2207 55.9904 31.3853 56.6944C30.5499 57.3984 29.5718 57.9053 28.5211 58.1786C27.4705 58.452 26.3734 58.485 25.3087 58.2754C24.2441 58.0658 23.2382 57.6187 22.3634 56.9662C21.4886 56.3137 20.7666 55.4721 20.2491 54.5017C19.7317 53.5314 19.4318 52.4564 19.3709 51.354C19.31 50.2516 19.4896 49.1492 19.8968 48.1258C20.8489 49.4512 22.0942 50.5295 23.5318 51.2734C24.9695 52.0172 26.5591 52.4058 28.1718 52.4074V49.4164C26.4827 49.4136 24.8461 48.818 23.538 47.73C22.2299 46.6419 21.3301 45.128 20.9903 43.4433C20.6505 41.7586 20.8914 40.0062 21.6725 38.4812C22.4536 36.9563 23.727 35.7522 25.2783 35.0717C25.2533 35.3708 25.2343 35.6579 25.2343 35.957C25.2374 38.7325 26.3216 41.3933 28.249 43.3558C30.1764 45.3184 32.7897 46.4223 35.5155 46.4255V43.4345C34.4279 43.4343 33.354 43.1881 32.3712 42.7137C31.3884 42.2393 30.5214 41.5486 29.8328 40.6915C29.1442 39.8344 28.6511 38.8322 28.3893 37.7574C28.1274 36.6826 28.1033 35.562 28.3186 34.4765C30.2382 34.5156 32.0664 35.3186 33.4116 36.7134C34.7568 38.1083 35.512 39.9841 35.5155 41.939H38.453C38.4483 39.4148 37.5489 36.9772 35.9201 35.0743C34.2914 33.1714 32.0427 31.931 29.5876 31.5812C30.494 30.2993 31.7766 29.3435 33.2507 28.8514C34.7248 28.3593 36.3142 28.3564 37.7901 28.843C39.2659 29.3296 40.552 30.2806 41.463 31.5591C42.374 32.8376 42.8629 34.3775 42.8593 35.957V59.8849Z" fill="#08238C"/>
<path d="M76.6405 41.939C76.6371 39.5223 75.814 37.181 74.3105 35.3111C72.8069 33.4411 70.7152 32.1574 68.3891 31.6769C67.4237 29.4955 65.7536 27.7167 63.6568 26.6366C61.56 25.5564 59.1631 25.2403 56.8653 25.7407C54.5674 26.241 52.5072 27.5278 51.0277 29.3867C49.5483 31.2456 48.7389 33.5644 48.7343 35.957V59.8849C48.7521 62.5279 49.7513 65.0663 51.5311 66.9903C53.3109 68.9143 55.7396 70.0816 58.3297 70.2579C60.9198 70.4341 63.4794 69.6062 65.4949 67.9405C67.5103 66.2747 68.8323 63.8943 69.1954 61.2772C70.9469 61.0483 72.6101 60.3609 74.0229 59.2823C75.4357 58.2037 76.5497 56.7706 77.2563 55.1228C77.963 53.4751 78.238 51.669 78.0546 49.8807C77.8713 48.0924 77.2358 46.3831 76.2102 44.9195C76.4945 43.9524 76.6394 42.9485 76.6405 41.939ZM75.1718 50.9119C75.1718 52.8951 74.398 54.797 73.0208 56.1993C71.6436 57.6016 69.7757 58.3894 67.828 58.3894C65.8803 58.3894 64.0124 57.6016 62.6352 56.1993C61.258 54.797 60.4843 52.8951 60.4843 50.9119H57.5468C57.5497 53.4032 58.425 55.8117 60.0155 57.7047C61.606 59.5977 63.8074 60.8512 66.2241 61.2398C65.8937 63.0738 64.9015 64.7156 63.4427 65.8427C61.9838 66.9698 60.1637 67.5006 58.3401 67.3308C56.5164 67.161 54.8211 66.3029 53.5872 64.9251C52.3533 63.5473 51.67 61.7495 51.6718 59.8849V35.957C51.6681 34.3775 52.1571 32.8376 53.068 31.5591C53.979 30.2806 55.2651 29.3296 56.7409 28.843C58.2168 28.3564 59.8062 28.3593 61.2803 28.8514C62.7544 29.3435 64.037 30.2994 64.9434 31.5812C62.4883 31.931 60.2396 33.1714 58.6109 35.0743C56.9822 36.9772 56.0827 39.4148 56.078 41.939H59.0155C59.019 39.9841 59.7742 38.1083 61.1194 36.7134C62.4646 35.3186 64.2928 34.5156 66.2124 34.4765C66.4277 35.562 66.4036 36.6826 66.1417 37.7574C65.8799 38.8322 65.3868 39.8344 64.6982 40.6915C64.0096 41.5487 63.1426 42.2393 62.1598 42.7137C61.1771 43.1881 60.1031 43.4343 59.0155 43.4345V46.4255C61.7413 46.4223 64.3546 45.3184 66.282 43.3558C68.2094 41.3933 69.2936 38.7325 69.2968 35.957C69.2968 35.6579 69.2777 35.3588 69.2527 35.0717C70.804 35.7522 72.0774 36.9563 72.8585 38.4812C73.6396 40.0062 73.8806 41.7586 73.5407 43.4433C73.2009 45.128 72.3011 46.6419 70.993 47.73C69.6849 48.818 68.0484 49.4136 66.3593 49.4165V52.4074C67.9719 52.4058 69.5615 52.0172 70.9992 51.2734C72.4368 50.5295 73.6821 49.4512 74.6342 48.1258C74.9873 49.0108 75.1698 49.9567 75.1718 50.9119Z" fill="#08238C"/>
<path d="M90.1016 38.9689L80.9718 37.4196C80.3132 35.2272 79.449 33.1043 78.3913 31.0802L83.7713 23.4099C83.9734 23.1219 84.0686 22.7704 84.0401 22.4177C84.0116 22.065 83.8612 21.7341 83.6156 21.4837L73.2301 10.909C72.9841 10.659 72.6591 10.5059 72.3127 10.4768C71.9663 10.4478 71.6211 10.5448 71.3383 10.7505L63.8051 16.2285C61.8175 15.151 59.7325 14.271 57.5791 13.6009L56.0574 4.30645C56.0004 3.95725 55.8236 3.63997 55.5584 3.41104C55.2932 3.18211 54.9569 3.05638 54.6093 3.05622H39.9218C39.5741 3.05638 39.2378 3.18211 38.9726 3.41104C38.7074 3.63997 38.5306 3.95725 38.4736 4.30645L36.9519 13.6009C34.7985 14.271 32.7135 15.151 30.7259 16.2285L23.1927 10.7505C22.9099 10.5448 22.5647 10.4478 22.2183 10.4768C21.8719 10.5059 21.5469 10.659 21.3009 10.909L10.9154 21.4837C10.6698 21.7341 10.5194 22.065 10.4909 22.4177C10.4624 22.7704 10.5577 23.1219 10.7597 23.4099L16.1398 31.0802C15.082 33.1043 14.2178 35.2272 13.5592 37.4196L4.42941 38.9689C4.08672 39.0273 3.77546 39.2075 3.55092 39.4775C3.32638 39.7474 3.2031 40.0897 3.203 40.4435V55.3984C3.2031 55.7522 3.32638 56.0945 3.55092 56.3644C3.77546 56.6344 4.08672 56.8146 4.42941 56.873L13.5592 58.4223C14.2178 60.6148 15.082 62.7377 16.1398 64.7617L10.7597 72.4321C10.5577 72.72 10.4624 73.0715 10.4909 73.4242C10.5194 73.7769 10.6698 74.1078 10.9154 74.3583L21.3009 84.9329C21.547 85.1833 21.8723 85.3367 22.219 85.3657C22.5657 85.3947 22.9113 85.2975 23.1942 85.0914L30.7259 79.6134C32.7135 80.6909 34.7985 81.5709 36.9519 82.241L38.4736 91.5355C38.5306 91.8847 38.7074 92.2019 38.9726 92.4309C39.2378 92.6598 39.5741 92.7855 39.9218 92.7857H54.6093C54.9569 92.7855 55.2932 92.6598 55.5584 92.4309C55.8236 92.2019 56.0004 91.8847 56.0574 91.5355L57.5791 82.241C59.7325 81.5709 61.8175 80.6909 63.8051 79.6134L71.3368 85.0914C71.6197 85.2975 71.9653 85.3947 72.312 85.3657C72.6587 85.3367 72.984 85.1833 73.2301 84.9329L83.6156 74.3583C83.8612 74.1078 84.0116 73.7769 84.0401 73.4242C84.0686 73.0715 83.9734 72.72 83.7713 72.4321L78.3913 64.7617C79.449 62.7377 80.3132 60.6148 80.9718 58.4223L90.1016 56.873C90.4443 56.8146 90.7555 56.6344 90.9801 56.3644C91.2046 56.0945 91.3279 55.7522 91.328 55.3984V40.4435C91.3279 40.0897 91.2046 39.7474 90.9801 39.4775C90.7555 39.2075 90.4443 39.0273 90.1016 38.9689ZM88.3905 54.1317L79.578 55.6272C79.3017 55.6739 79.0443 55.8001 78.8361 55.9909C78.6279 56.1817 78.4776 56.4291 78.403 56.704C77.6986 59.2955 76.6833 61.7888 75.3803 64.1276C75.2423 64.3755 75.1768 64.6583 75.1913 64.9429C75.2059 65.2274 75.3 65.5018 75.4626 65.7337L80.6561 73.1379L72.0316 81.9209L64.7612 76.6344C64.5332 76.4688 64.2633 76.3731 63.9836 76.3585C63.7038 76.3439 63.4258 76.4111 63.1824 76.5521C60.8848 77.8767 58.4362 78.9088 55.8915 79.6254C55.6215 79.7014 55.3785 79.8544 55.1912 80.0663C55.0038 80.2783 54.8799 80.5404 54.834 80.8218L53.3652 89.7947H41.1658L39.697 80.8218C39.6511 80.5404 39.5272 80.2783 39.3398 80.0663C39.1525 79.8544 38.9095 79.7014 38.6395 79.6254C36.0947 78.9079 33.646 77.8747 31.3487 76.5491C31.1052 76.4081 30.8272 76.3409 30.5474 76.3555C30.2677 76.3701 29.9978 76.4658 29.7698 76.6314L22.498 81.9195L13.8735 73.1379L19.0655 65.7337C19.2281 65.5018 19.3222 65.2274 19.3367 64.9429C19.3513 64.6583 19.2857 64.3755 19.1478 64.1276C17.8457 61.7886 16.8315 59.2953 16.128 56.704C16.0534 56.4291 15.9031 56.1817 15.6949 55.9909C15.4867 55.8001 15.2293 55.6739 14.953 55.6272L6.1405 54.1317V41.7102L14.953 40.2147C15.2293 40.168 15.4867 40.0418 15.6949 39.851C15.9031 39.6602 16.0534 39.4128 16.128 39.1379C16.8324 36.5464 17.8477 34.0531 19.1507 31.7143C19.2887 31.4664 19.3542 31.1836 19.3397 30.899C19.3251 30.6145 19.231 30.3401 19.0684 30.1082L13.8735 22.704L22.498 13.921L29.7712 19.2075C29.9988 19.3743 30.2687 19.4708 30.5488 19.4854C30.8288 19.5 31.107 19.4321 31.3501 19.2898C33.647 17.965 36.0952 16.9328 38.6395 16.2165C38.9095 16.1405 39.1525 15.9875 39.3398 15.7756C39.5272 15.5636 39.6511 15.3015 39.697 15.0202L41.1658 6.0472H53.3652L54.834 15.0202C54.8799 15.3015 55.0038 15.5636 55.1912 15.7756C55.3785 15.9875 55.6215 16.1405 55.8915 16.2165C58.436 16.9338 60.8841 17.9669 63.1809 19.2928C63.424 19.435 63.7022 19.503 63.9822 19.4884C64.2623 19.4738 64.5322 19.3773 64.7598 19.2105L72.033 13.9225L80.6575 22.7055L75.4655 30.1082C75.3029 30.3401 75.2088 30.6145 75.1943 30.899C75.1797 31.1836 75.2453 31.4664 75.3833 31.7143C76.6853 34.0533 77.6995 36.5466 78.403 39.1379C78.4776 39.4128 78.6279 39.6602 78.8361 39.851C79.0443 40.0418 79.3017 40.168 79.578 40.2147L88.3905 41.7102V54.1317Z" fill="#08238C"/>
</svg>
