<svg width="95" height="96" viewBox="0 0 95 96" fill="none" xmlns="http://www.w3.org/2000/svg">
<g clip-path="url(#clip0)">
<path d="M80.8141 41.6007C80.1581 39.7261 78.4135 38.4757 76.4589 38.4793C74.5063 38.4853 72.7687 39.7419 72.1199 41.6173H62.5901V35.3412H68.754C69.6048 35.3414 70.2948 34.6392 70.295 33.7729C70.295 33.7727 70.295 33.7723 70.295 33.7721V27.2069C72.7022 26.3404 73.9639 23.6511 73.1129 21.1998C72.2619 18.7488 69.6206 17.4641 67.2132 18.3306C64.8058 19.1971 63.5443 21.8865 64.3953 24.3377C64.8607 25.6782 65.8965 26.7328 67.213 27.2069V32.2033H62.5901V29.0652C62.5903 28.1989 61.9007 27.4964 61.0499 27.4962C61.0497 27.4962 61.0493 27.4962 61.0491 27.4962H57.9671V19.3615C60.3743 18.495 61.636 15.8057 60.785 13.3544C59.934 10.9034 57.2928 9.61873 54.8854 10.4852C52.4781 11.3517 51.2165 14.0411 52.0675 16.4923C52.5328 17.8329 53.5686 18.8874 54.8852 19.3615V27.496H48.7212V2.44645C48.7214 1.58015 48.0318 0.877611 47.181 0.877415C47.1808 0.877415 47.1804 0.877415 47.1802 0.877415C28.1701 0.877415 13.2786 14.8915 13.2786 32.7807C13.2786 41.2786 16.5915 52.53 21.9256 62.142C22.8835 63.8673 24.1333 65.6815 25.456 67.603C28.2531 71.6627 31.3659 76.228 31.7043 80.202C30.5197 81.0546 29.8264 82.4493 29.8532 83.9261C29.8577 84.987 30.2175 86.0147 30.8732 86.8392C29.9611 87.7556 29.451 89.008 29.4589 90.3127C29.4616 92.9112 31.5298 95.0171 34.0819 95.0198H60.2786C62.848 95.0035 64.9181 92.8696 64.9021 90.2535C64.9019 90.2364 64.9017 90.2193 64.9016 90.2023C64.9006 88.9261 64.3884 87.7055 63.4833 86.8226C64.1474 85.9663 64.5082 84.9068 64.5073 83.8157C64.5026 81.3305 62.5203 79.3198 60.0796 79.3245C60.0145 79.3247 59.9494 79.3263 59.8843 79.3292H48.7212V49.4623H51.8032V54.1695C51.803 55.0358 52.4926 55.7383 53.3434 55.7385C53.3436 55.7385 53.344 55.7385 53.3442 55.7385H57.9671V57.5966C55.5599 58.4631 54.2984 61.1527 55.1496 63.6035C56.0008 66.0544 58.6421 67.339 61.0491 66.4723C63.4563 65.6058 64.7178 62.9163 63.8666 60.4654C63.4012 59.1249 62.3655 58.0705 61.0491 57.5966V54.1695C61.0493 53.3032 60.3597 52.6006 59.5089 52.6004C59.5087 52.6004 59.5083 52.6004 59.5081 52.6004H54.8852V49.4623H61.0491C61.8999 49.4625 62.5899 48.7604 62.5901 47.8941C62.5901 47.8939 62.5901 47.8935 62.5901 47.8933V44.7552H72.1201C72.9757 47.1998 75.6154 48.4752 78.0163 47.604C80.4169 46.733 81.6696 44.0452 80.8141 41.6007ZM68.754 21.2196C69.605 21.2196 70.295 21.9222 70.295 22.7887C70.295 23.6552 69.605 24.3577 68.754 24.3577C67.903 24.3577 67.213 23.6552 67.213 22.7887C67.2138 21.9226 67.9034 21.2206 68.754 21.2196ZM27.9796 65.801C26.7004 63.9438 25.4928 62.191 24.6087 60.5974C19.5984 51.5678 16.3606 40.6488 16.3606 32.7807C16.3606 17.1333 29.1001 4.77393 45.6393 4.04923V15.0105C45.2301 15.0417 44.8127 15.0796 44.3662 15.1353C43.7121 15.2163 43.181 15.7121 43.045 16.3687L42.5754 18.6427C42.1886 18.7362 41.803 18.8419 41.4181 18.9598L39.8823 17.216C39.4424 16.7149 38.7378 16.5553 38.1306 16.8193C36.4059 17.5765 34.778 18.5444 33.2827 19.7014C32.7562 20.1054 32.5407 20.8058 32.7462 21.4436L33.4535 23.6379C33.1623 23.9168 32.8788 24.2063 32.6041 24.5021L30.4513 23.7819C29.8251 23.5753 29.139 23.794 28.7402 24.3273C27.6024 25.8503 26.6511 27.5085 25.9073 29.2659C25.6485 29.8841 25.8053 30.6013 26.297 31.0495L28.0104 32.6124C27.8952 33.0002 27.7922 33.3887 27.7012 33.7784L25.3048 34.2656C24.5844 34.4119 24.0657 35.056 24.0657 35.804V41.1545C24.0657 41.9025 24.5844 42.5466 25.305 42.6929L27.7014 43.1801C27.7925 43.5692 27.8956 43.958 28.0106 44.3461L26.2966 45.9091C25.8054 46.3576 25.6488 47.0745 25.907 47.6927C26.6509 49.4498 27.602 51.1083 28.7399 52.6312C29.1382 53.1651 29.8247 53.3838 30.4509 53.1767L32.6037 52.4565C32.8791 52.7522 33.1619 53.0417 33.4532 53.3206L32.7458 55.5118C32.5405 56.1494 32.7557 56.8494 33.2815 57.254C34.7769 58.4127 36.4055 59.3816 38.131 60.1393C38.7382 60.4017 39.442 60.2422 39.8827 59.7425L41.4185 57.9987C41.803 58.1168 42.1888 58.2225 42.5758 58.3158L43.0446 60.5882C43.18 61.2454 43.7113 61.742 44.3658 61.8232C44.8129 61.8789 45.2305 61.9168 45.6396 61.948V79.3294H34.7198C34.0898 74.7053 30.873 70.0015 27.9796 65.801ZM33.3114 38.4791C33.3212 45.666 38.6253 51.702 45.6393 52.5079V57.9036L45.3842 56.6686C45.2555 56.0431 44.7673 55.5594 44.1495 55.4459C43.2361 55.2766 42.3381 55.0301 41.4649 54.7088C41.2975 54.6482 41.1211 54.6172 40.9435 54.6168C40.5055 54.6168 40.0881 54.8069 39.796 55.1393L38.3469 56.7851C37.5439 56.3765 36.769 55.9131 36.0272 55.3984L36.6962 53.3253C36.8921 52.7177 36.7066 52.0501 36.2273 51.6368C35.5167 51.0243 34.857 50.353 34.2552 49.6296C33.8482 49.145 33.1947 48.9575 32.5991 49.1546L30.5638 49.8366C30.058 49.0811 29.6028 48.2916 29.2012 47.4738L30.8188 45.9983C31.2854 45.5717 31.4522 44.9002 31.2409 44.299C30.9258 43.4098 30.6836 42.4954 30.517 41.5656C30.4045 40.9315 29.9226 40.4319 29.3017 40.306L27.1474 39.8675V37.091L29.3017 36.6529C29.9224 36.5272 30.4045 36.0274 30.517 35.3934C30.6836 34.4629 30.9257 33.548 31.2407 32.6581C31.4524 32.0568 31.2852 31.385 30.8179 30.9589L29.2016 29.4847C29.6036 28.6673 30.0586 27.8778 30.5634 27.122L32.5994 27.8039C33.195 28.0008 33.8484 27.8135 34.2556 27.3289C34.8589 26.605 35.519 25.9322 36.2292 25.317C36.7066 24.9045 36.8911 24.2387 36.6958 23.633L36.0276 21.5599C36.7694 21.0455 37.5441 20.5822 38.3465 20.1733L39.7957 21.819C40.2148 22.2936 40.874 22.4637 41.4645 22.2495C42.3377 21.928 43.2357 21.6815 44.1491 21.5124C44.7667 21.3995 45.255 20.9164 45.3838 20.2911L45.6393 19.0561V24.4503C38.6253 25.2564 33.3212 31.2921 33.3114 38.4791ZM45.6393 27.6211V49.337C39.7498 48.4786 35.6589 42.9212 36.502 36.9245C37.1802 32.1013 40.9021 28.3117 45.6393 27.6211ZM61.8196 90.3127C61.8188 91.1788 61.1292 91.8809 60.2786 91.8817H34.0819C33.2153 91.8668 32.5245 91.1394 32.5392 90.257C32.5395 90.2388 32.5401 90.2205 32.5409 90.2023C32.5417 89.3362 33.2313 88.634 34.0819 88.6332H60.2786C61.1452 88.6481 61.836 89.3756 61.8213 90.258C61.8211 90.2762 61.8205 90.2945 61.8196 90.3127ZM59.8843 82.4675C60.6606 82.3945 61.348 82.9765 61.4195 83.7668C61.4243 83.8198 61.4263 83.873 61.4253 83.9261C61.4245 84.7922 60.7349 85.4944 59.8843 85.4952H34.4762C33.6096 85.4802 32.9188 84.753 32.9335 83.8704C32.9338 83.8522 32.9344 83.8339 32.9352 83.8157C32.9681 83.0335 33.6177 82.4267 34.3858 82.4604C34.4161 82.4618 34.4461 82.4642 34.4762 82.4673H59.8843V82.4675ZM59.5081 60.4456C60.3591 60.4456 61.0491 61.1482 61.0491 62.0147C61.0491 62.8812 60.3591 63.5837 59.5081 63.5837C58.6571 63.5837 57.9671 62.8812 57.9671 62.0147C57.9679 61.1486 58.6575 60.4466 59.5081 60.4456ZM56.4261 13.3744C57.2771 13.3744 57.9671 14.077 57.9671 14.9435C57.9671 15.81 57.2771 16.5125 56.4261 16.5125C55.5751 16.5125 54.8852 15.81 54.8852 14.9435C54.8859 14.0774 55.5755 13.3754 56.4261 13.3744ZM59.5081 46.3243H48.7212V30.6339H59.5081V46.3243ZM76.4589 44.7552C75.6079 44.7552 74.9179 44.0527 74.9179 43.1862C74.9179 42.3197 75.6079 41.6171 76.4589 41.6171C77.3099 41.6171 77.9999 42.3197 77.9999 43.1862C77.9991 44.0525 77.3096 44.7544 76.4589 44.7552Z" fill="#08238C"/>
<path d="M61.2716 72.5996C60.7282 73.5889 60.2474 74.6125 59.8323 75.6641L62.6976 76.8195C63.0647 75.8918 63.4896 74.9891 63.9698 74.1167L61.2716 72.5996Z" fill="black"/>
<path d="M64.738 67.0727C64.1324 67.9584 63.5282 68.8592 62.9503 69.7695L65.5372 71.4734C66.097 70.594 66.6816 69.7236 67.2677 68.8655L64.738 67.0727Z" fill="black"/>
<path d="M68.2437 61.8523C67.7238 62.6919 67.1444 63.5608 66.5373 64.4526L69.0686 66.2422C69.7044 65.3106 70.3092 64.402 70.8519 63.5225L68.2437 61.8523Z" fill="black"/>
<path d="M71.1352 56.3836C70.6935 57.3244 70.2318 58.2545 69.7501 59.1739L72.4678 60.6541C72.9719 59.6935 73.4548 58.7205 73.9163 57.7351L71.1352 56.3836Z" fill="black"/>
<path d="M73.5423 50.6254C73.1842 51.5953 72.8026 52.5667 72.3992 53.5305L75.236 54.7594C75.6559 53.7527 76.0529 52.7424 76.4272 51.7286L73.5423 50.6254Z" fill="black"/>
<path d="M80.3104 32.4681L77.2285 32.4926L77.23 32.7807C77.23 33.6556 77.1901 34.5857 77.1104 35.5418L80.1818 35.8054C80.2682 34.762 80.312 33.7445 80.312 32.7807L80.3104 32.4681Z" fill="black"/>
<path d="M79.5257 25.7889L76.525 26.503C76.7502 27.4838 76.9214 28.4768 77.0381 29.4771L80.0991 29.1062C79.9683 27.9906 79.7769 26.8831 79.5257 25.7889Z" fill="black"/>
<path d="M77.3105 19.4484L74.54 20.8213C74.9732 21.7276 75.3571 22.6577 75.6898 23.6069L78.5926 22.5559C78.2224 21.4966 77.7944 20.459 77.3105 19.4484Z" fill="black"/>
<path d="M73.7853 13.7667L71.3716 15.7188C71.9883 16.5096 72.5635 17.3329 73.0946 18.1857L75.6994 16.5094C75.1096 15.5613 74.4707 14.6457 73.7853 13.7667Z" fill="black"/>
<path d="M69.167 8.97836L67.2032 11.3963C67.9693 12.0415 68.7024 12.7264 69.3995 13.448L71.5966 11.2476C70.8251 10.4495 70.0142 9.69228 69.167 8.97836Z" fill="black"/>
<path d="M63.7148 5.23817L62.2491 7.99928C63.1294 8.48353 63.991 9.01367 64.8097 9.57441L66.5298 6.9696C65.6289 6.35375 64.6823 5.77144 63.7148 5.23817Z" fill="black"/>
<path d="M57.6743 2.63493L56.7413 5.62592C57.7013 5.93541 58.6457 6.29099 59.5493 6.68168L60.7548 3.79485C59.7624 3.36415 58.7255 2.97502 57.6743 2.63493Z" fill="black"/>
<path d="M51.2808 1.19456L50.8865 4.30812C51.8804 4.43835 52.8751 4.61467 53.8429 4.83375L54.5095 1.76922C53.4524 1.5317 52.3658 1.33852 51.2808 1.19456Z" fill="black"/>
<path d="M6.34475 85.5503H3.26279V88.6883H6.34475V85.5503Z" fill="black"/>
<path d="M6.34475 91.8264H3.26279V94.9645H6.34475V91.8264Z" fill="black"/>
<path d="M9.42672 88.6883H6.34476V91.8264H9.42672V88.6883Z" fill="black"/>
<path d="M3.26278 88.6883H0.180817V91.8264H3.26278V88.6883Z" fill="black"/>
<path d="M91.0988 0.822105H88.0169V3.96018H91.0988V0.822105Z" fill="black"/>
<path d="M91.0988 7.09827H88.0169V10.2363H91.0988V7.09827Z" fill="black"/>
<path d="M94.1808 3.96018H91.0988V7.09826H94.1808V3.96018Z" fill="black"/>
<path d="M88.0169 3.96018H84.9349V7.09826H88.0169V3.96018Z" fill="black"/>
</g>
<defs>
<clipPath id="clip0">
<rect x="0.180817" y="0.065239" width="94" height="95.7114" fill="white"/>
</clipPath>
</defs>
</svg>
